<svg width="1440" height="320" viewBox="0 0 1440 320" xmlns="http://www.w3.org/2000/svg">
  <path fill="#DFF5E6" fill-opacity="1" d="M0,64L60,80C120,96,240,128,360,138.7C480,149,600,139,720,122.7C840,107,960,85,1080,101.3C1200,117,1320,171,1380,197.3L1440,224L1440,0L1380,0C1320,0,1200,0,1080,0C960,0,840,0,720,0C600,0,480,0,360,0C240,0,120,0,60,0L0,0Z"></path>
  <path fill="#BDEBCC" fill-opacity="0.7" d="M0,192L60,170.7C120,149,240,107,360,117.3C480,128,600,192,720,224C840,256,960,256,1080,234.7C1200,213,1320,171,1380,149.3L1440,128L1440,0L1380,0C1320,0,1200,0,1080,0C960,0,840,0,720,0C600,0,480,0,360,0C240,0,120,0,60,0L0,0Z"></path>
</svg>
